# This file was created with Minddesk Qubicle 3.0
# Get Qubicle at www.getqubicle.com

mtllib Basket.mtl

vn 0.0 0.0 1.0
vn 0.0 0.0 -1.0
vn -1.0 0.0 0.0
vn 1.0 0.0 0.0
vn 0.0 1.0 0.0
vn 0.0 -1.0 0.0

v 5.00000 5.00000 -6.00000
v 5.00000 3.00000 -6.00000
v -5.00000 3.00000 -6.00000
v -5.00000 5.00000 -6.00000
v 4.00000 5.00000 5.00000
v 4.00000 3.00000 5.00000
v -4.00000 3.00000 5.00000
v -4.00000 5.00000 5.00000
v -5.00000 5.00000 -5.00000
v -5.00000 3.00000 -5.00000
v -6.00000 3.00000 -5.00000
v -6.00000 5.00000 -5.00000
v 6.00000 5.00000 -5.00000
v 6.00000 3.00000 -5.00000
v 5.00000 3.00000 -5.00000
v 5.00000 5.00000 -5.00000
v -4.00000 5.00000 4.00000
v -4.00000 3.00000 4.00000
v -5.00000 3.00000 4.00000
v -5.00000 5.00000 4.00000
v 5.00000 5.00000 4.00000
v 5.00000 3.00000 4.00000
v 4.00000 3.00000 4.00000
v 4.00000 5.00000 4.00000
v 4.00000 3.00000 -6.00000
v 4.00000 2.00000 -6.00000
v -4.00000 2.00000 -6.00000
v -4.00000 3.00000 -6.00000
v 4.00000 2.00000 -5.00000
v 4.00000 1.00000 -5.00000
v -4.00000 1.00000 -5.00000
v -4.00000 2.00000 -5.00000
v 3.00000 1.00000 -4.00000
v 3.00000 0.00000 -4.00000
v -3.00000 0.00000 -4.00000
v -3.00000 1.00000 -4.00000
v 4.00000 2.00000 4.00000
v -4.00000 2.00000 4.00000
v -4.00000 3.00000 -5.00000
v -5.00000 2.00000 -5.00000
v 5.00000 2.00000 -5.00000
v 4.00000 3.00000 -5.00000
v -5.00000 3.00000 -4.00000
v -5.00000 2.00000 -4.00000
v -6.00000 2.00000 -4.00000
v -6.00000 3.00000 -4.00000
v -4.00000 2.00000 -4.00000
v -4.00000 1.00000 -4.00000
v -5.00000 1.00000 -4.00000
v 5.00000 2.00000 -4.00000
v 5.00000 1.00000 -4.00000
v 4.00000 1.00000 -4.00000
v 4.00000 2.00000 -4.00000
v 6.00000 3.00000 -4.00000
v 6.00000 2.00000 -4.00000
v 5.00000 3.00000 -4.00000
v -3.00000 1.00000 -3.00000
v -3.00000 0.00000 -3.00000
v -4.00000 0.00000 -3.00000
v -4.00000 1.00000 -3.00000
v 4.00000 1.00000 -3.00000
v 4.00000 0.00000 -3.00000
v 3.00000 0.00000 -3.00000
v 3.00000 1.00000 -3.00000
v -5.00000 5.00000 6.00000
v -5.00000 3.00000 6.00000
v 5.00000 3.00000 6.00000
v 5.00000 5.00000 6.00000
v -4.00000 5.00000 -5.00000
v 4.00000 5.00000 -5.00000
v -5.00000 5.00000 -4.00000
v -4.00000 3.00000 -4.00000
v -4.00000 5.00000 -4.00000
v 4.00000 5.00000 -4.00000
v 4.00000 3.00000 -4.00000
v 5.00000 5.00000 -4.00000
v -6.00000 5.00000 5.00000
v -6.00000 3.00000 5.00000
v -5.00000 3.00000 5.00000
v -5.00000 5.00000 5.00000
v 5.00000 5.00000 5.00000
v 5.00000 3.00000 5.00000
v 6.00000 3.00000 5.00000
v 6.00000 5.00000 5.00000
v -3.00000 1.00000 4.00000
v -3.00000 0.00000 4.00000
v 3.00000 0.00000 4.00000
v 3.00000 1.00000 4.00000
v -4.00000 2.00000 5.00000
v -4.00000 1.00000 5.00000
v 4.00000 1.00000 5.00000
v 4.00000 2.00000 5.00000
v -4.00000 3.00000 6.00000
v -4.00000 2.00000 6.00000
v 4.00000 2.00000 6.00000
v 4.00000 3.00000 6.00000
v -4.00000 1.00000 3.00000
v -4.00000 0.00000 3.00000
v -3.00000 0.00000 3.00000
v -3.00000 1.00000 3.00000
v 3.00000 1.00000 3.00000
v 3.00000 0.00000 3.00000
v 4.00000 0.00000 3.00000
v 4.00000 1.00000 3.00000
v -6.00000 3.00000 4.00000
v -6.00000 2.00000 4.00000
v -5.00000 2.00000 4.00000
v -5.00000 1.00000 4.00000
v -4.00000 1.00000 4.00000
v 4.00000 1.00000 4.00000
v 5.00000 1.00000 4.00000
v 5.00000 2.00000 4.00000
v 6.00000 2.00000 4.00000
v 6.00000 3.00000 4.00000
v -5.00000 2.00000 5.00000
v 5.00000 2.00000 5.00000
v -6.00000 5.00000 -4.00000
v -6.00000 5.00000 4.00000
v 6.00000 5.00000 4.00000
v 6.00000 5.00000 -4.00000
v -5.00000 1.00000 3.00000
v -5.00000 1.00000 -3.00000
v 5.00000 1.00000 -3.00000
v 5.00000 1.00000 3.00000

vt 0.01563 0.14063
vt 0.01563 0.01563
vt 0.14063 0.01563
vt 0.14063 0.14063
vt 0.17188 0.14063
vt 0.17188 0.01563
vt 0.18750 0.01563
vt 0.18750 0.14063
vt 0.21875 0.14063
vt 0.21875 0.01563
vt 0.23438 0.01563
vt 0.23438 0.14063
vt 0.26563 0.14063
vt 0.26563 0.01563
vt 0.28125 0.01563
vt 0.28125 0.14063
vt 0.31250 0.14063
vt 0.31250 0.01563
vt 0.32813 0.01563
vt 0.32813 0.14063
vt 0.35938 0.14063
vt 0.35938 0.01563
vt 0.37500 0.01563
vt 0.37500 0.14063
vt 0.40625 0.14063
vt 0.40625 0.01563
vt 0.42188 0.01563
vt 0.42188 0.14063
vt 0.45313 0.10938
vt 0.45313 0.01563
vt 0.57813 0.01563
vt 0.57813 0.10938
vt 0.60938 0.10938
vt 0.60938 0.01563
vt 0.62500 0.01563
vt 0.62500 0.10938
vt 0.65625 0.10938
vt 0.65625 0.01563
vt 0.67188 0.01563
vt 0.67188 0.10938
vt 0.70313 0.04688
vt 0.70313 0.01563
vt 0.85938 0.01563
vt 0.85938 0.04688
vt 0.70313 0.10938
vt 0.70313 0.07813
vt 0.85938 0.07813
vt 0.85938 0.10938
vt 0.01563 0.20313
vt 0.01563 0.17188
vt 0.17188 0.17188
vt 0.17188 0.20313
vt 0.20313 0.20313
vt 0.20313 0.17188
vt 0.35938 0.17188
vt 0.35938 0.20313
vt 0.39063 0.20313
vt 0.39063 0.17188
vt 0.51563 0.17188
vt 0.51563 0.20313
vt 0.54688 0.20313
vt 0.54688 0.17188
vt 0.67188 0.17188
vt 0.67188 0.20313
vt 0.70313 0.20313
vt 0.70313 0.17188
vt 0.82813 0.17188
vt 0.82813 0.20313
vt 0.85938 0.20313
vt 0.85938 0.17188
vt 0.98438 0.17188
vt 0.98438 0.20313
vt 0.89063 0.04688
vt 0.89063 0.01563
vt 0.90625 0.01563
vt 0.90625 0.04688
vt 0.93750 0.04688
vt 0.93750 0.01563
vt 0.95313 0.01563
vt 0.95313 0.04688
vt 0.89063 0.10938
vt 0.89063 0.07813
vt 0.90625 0.07813
vt 0.90625 0.10938
vt 0.93750 0.10938
vt 0.93750 0.07813
vt 0.95313 0.07813
vt 0.95313 0.10938
vt 0.01563 0.26563
vt 0.01563 0.23438
vt 0.03125 0.23438
vt 0.03125 0.26563
vt 0.06250 0.26563
vt 0.06250 0.23438
vt 0.07813 0.23438
vt 0.07813 0.26563
vt 0.10938 0.26563
vt 0.10938 0.23438
vt 0.12500 0.23438
vt 0.12500 0.26563
vt 0.15625 0.26563
vt 0.15625 0.23438
vt 0.17188 0.23438
vt 0.17188 0.26563
vt 0.20313 0.26563
vt 0.20313 0.23438
vt 0.21875 0.23438
vt 0.21875 0.26563
vt 0.25000 0.26563
vt 0.25000 0.23438
vt 0.26563 0.23438
vt 0.26563 0.26563
vt 0.29688 0.26563
vt 0.29688 0.23438
vt 0.31250 0.23438
vt 0.31250 0.26563
vt 0.34375 0.26563
vt 0.34375 0.23438
vt 0.35938 0.23438
vt 0.35938 0.26563
vt 0.39063 0.26563
vt 0.39063 0.23438
vt 0.40625 0.23438
vt 0.40625 0.26563
vt 0.43750 0.26563
vt 0.43750 0.23438
vt 0.45313 0.23438
vt 0.45313 0.26563
vt 0.48438 0.26563
vt 0.48438 0.23438
vt 0.50000 0.23438
vt 0.50000 0.26563
vt 0.53125 0.26563
vt 0.53125 0.23438
vt 0.54688 0.23438
vt 0.54688 0.26563
vt 0.57813 0.25000
vt 0.57813 0.23438
vt 0.73438 0.23438
vt 0.73438 0.25000
vt 0.76563 0.25000
vt 0.76563 0.23438
vt 0.92188 0.23438
vt 0.92188 0.25000
vt 0.01563 0.31250
vt 0.01563 0.29688
vt 0.14063 0.29688
vt 0.14063 0.31250
vt 0.17188 0.31250
vt 0.17188 0.29688
vt 0.29688 0.29688
vt 0.29688 0.31250
vt 0.32813 0.31250
vt 0.32813 0.29688
vt 0.45313 0.29688
vt 0.45313 0.31250
vt 0.48438 0.31250
vt 0.48438 0.29688
vt 0.60938 0.29688
vt 0.60938 0.31250
vt 0.64063 0.31250
vt 0.64063 0.29688
vt 0.76563 0.29688
vt 0.76563 0.31250
vt 0.79688 0.31250
vt 0.79688 0.29688
vt 0.92188 0.29688
vt 0.92188 0.31250
vt 0.01563 0.35938
vt 0.01563 0.34375
vt 0.14063 0.34375
vt 0.14063 0.35938
vt 0.17188 0.35938
vt 0.17188 0.34375
vt 0.29688 0.34375
vt 0.29688 0.35938
vt 0.32813 0.35938
vt 0.32813 0.34375
vt 0.45313 0.34375
vt 0.45313 0.35938
vt 0.48438 0.35938
vt 0.48438 0.34375
vt 0.60938 0.34375
vt 0.60938 0.35938
vt 0.64063 0.35938
vt 0.64063 0.34375
vt 0.76563 0.34375
vt 0.76563 0.35938
vt 0.79688 0.35938
vt 0.79688 0.34375
vt 0.92188 0.34375
vt 0.92188 0.35938
vt 0.01563 0.40625
vt 0.01563 0.39063
vt 0.14063 0.39063
vt 0.14063 0.40625
vt 0.17188 0.40625
vt 0.17188 0.39063
vt 0.29688 0.39063
vt 0.29688 0.40625
vt 0.32813 0.40625
vt 0.32813 0.39063
vt 0.45313 0.39063
vt 0.45313 0.40625
vt 0.48438 0.40625
vt 0.48438 0.39063
vt 0.60938 0.39063
vt 0.60938 0.40625
vt 0.64063 0.40625
vt 0.64063 0.39063
vt 0.76563 0.39063
vt 0.76563 0.40625
vt 0.79688 0.40625
vt 0.79688 0.39063
vt 0.92188 0.39063
vt 0.92188 0.40625
vt 0.01563 0.45313
vt 0.01563 0.43750
vt 0.10938 0.43750
vt 0.10938 0.45313
vt 0.14063 0.45313
vt 0.14063 0.43750
vt 0.23438 0.43750
vt 0.23438 0.45313
vt 0.26563 0.45313
vt 0.26563 0.43750
vt 0.35938 0.43750
vt 0.35938 0.45313
vt 0.39063 0.45313
vt 0.39063 0.43750
vt 0.48438 0.43750
vt 0.48438 0.45313
vt 0.51563 0.45313
vt 0.51563 0.43750
vt 0.60938 0.43750
vt 0.60938 0.45313
vt 0.64063 0.45313
vt 0.64063 0.43750
vt 0.73438 0.43750
vt 0.73438 0.45313
vt 0.95313 0.25000
vt 0.95313 0.23438
vt 0.98438 0.23438
vt 0.98438 0.25000
vt 0.95313 0.31250
vt 0.95313 0.29688
vt 0.98438 0.29688
vt 0.98438 0.31250
vt 0.95313 0.35938
vt 0.95313 0.34375
vt 0.98438 0.34375
vt 0.98438 0.35938
vt 0.95313 0.40625
vt 0.95313 0.39063
vt 0.98438 0.39063
vt 0.98438 0.40625
vt 0.76563 0.45313
vt 0.76563 0.43750
vt 0.79688 0.43750
vt 0.79688 0.45313
vt 0.82813 0.45313
vt 0.82813 0.43750
vt 0.85938 0.43750
vt 0.85938 0.45313
vt 0.89063 0.45313
vt 0.89063 0.43750
vt 0.92188 0.43750
vt 0.92188 0.45313
vt 0.95313 0.45313
vt 0.95313 0.43750
vt 0.98438 0.43750
vt 0.98438 0.45313
vt 0.01563 0.50000
vt 0.01563 0.48438
vt 0.03125 0.48438
vt 0.03125 0.50000
vt 0.06250 0.50000
vt 0.06250 0.48438
vt 0.07813 0.48438
vt 0.07813 0.50000
vt 0.10938 0.50000
vt 0.10938 0.48438
vt 0.12500 0.48438
vt 0.12500 0.50000
vt 0.15625 0.50000
vt 0.15625 0.48438
vt 0.17188 0.48438
vt 0.17188 0.50000
vt 0.20313 0.50000
vt 0.20313 0.48438
vt 0.21875 0.48438
vt 0.21875 0.50000
vt 0.25000 0.50000
vt 0.25000 0.48438
vt 0.26563 0.48438
vt 0.26563 0.50000
vt 0.29688 0.50000
vt 0.29688 0.48438
vt 0.31250 0.48438
vt 0.31250 0.50000
vt 0.34375 0.50000
vt 0.34375 0.48438
vt 0.35938 0.48438
vt 0.35938 0.50000
vt 0.39063 0.50000
vt 0.39063 0.48438
vt 0.40625 0.48438
vt 0.40625 0.50000
vt 0.43750 0.50000
vt 0.43750 0.48438
vt 0.45313 0.48438
vt 0.45313 0.50000
vt 0.48438 0.50000
vt 0.48438 0.48438
vt 0.50000 0.48438
vt 0.50000 0.50000
vt 0.53125 0.50000
vt 0.53125 0.48438
vt 0.54688 0.48438
vt 0.54688 0.50000
vt 0.57813 0.50000
vt 0.57813 0.48438
vt 0.59375 0.48438
vt 0.59375 0.50000
vt 0.62500 0.50000
vt 0.62500 0.48438
vt 0.64063 0.48438
vt 0.64063 0.50000
vt 0.67188 0.50000
vt 0.67188 0.48438
vt 0.68750 0.48438
vt 0.68750 0.50000
vt 0.71875 0.50000
vt 0.71875 0.48438
vt 0.73438 0.48438
vt 0.73438 0.50000
vt 0.76563 0.50000
vt 0.76563 0.48438
vt 0.78125 0.48438
vt 0.78125 0.50000
vt 0.81250 0.50000
vt 0.81250 0.48438
vt 0.82813 0.48438
vt 0.82813 0.50000
vt 0.85938 0.50000
vt 0.85938 0.48438
vt 0.87500 0.48438
vt 0.87500 0.50000
vt 0.90625 0.50000
vt 0.90625 0.48438
vt 0.92188 0.48438
vt 0.92188 0.50000
vt 0.95313 0.50000
vt 0.95313 0.48438
vt 0.96875 0.48438
vt 0.96875 0.50000
vt 0.01563 0.54688
vt 0.01563 0.53125
vt 0.03125 0.53125
vt 0.03125 0.54688
vt 0.06250 0.54688
vt 0.06250 0.53125
vt 0.07813 0.53125
vt 0.07813 0.54688
vt 0.10938 0.54688
vt 0.10938 0.53125
vt 0.12500 0.53125
vt 0.12500 0.54688
vt 0.15625 0.54688
vt 0.15625 0.53125
vt 0.17188 0.53125
vt 0.17188 0.54688
vt 0.20313 0.54688
vt 0.20313 0.53125
vt 0.21875 0.53125
vt 0.21875 0.54688
vt 0.25000 0.54688
vt 0.25000 0.53125
vt 0.26563 0.53125
vt 0.26563 0.54688
vt 0.29688 0.54688
vt 0.29688 0.53125
vt 0.31250 0.53125
vt 0.31250 0.54688
vt 0.34375 0.54688
vt 0.34375 0.53125
vt 0.35938 0.53125
vt 0.35938 0.54688
vt 0.39063 0.54688
vt 0.39063 0.53125
vt 0.40625 0.53125
vt 0.40625 0.54688
vt 0.43750 0.54688
vt 0.43750 0.53125
vt 0.45313 0.53125
vt 0.45313 0.54688
vt 0.48438 0.54688
vt 0.48438 0.53125
vt 0.50000 0.53125
vt 0.50000 0.54688
vt 0.53125 0.54688
vt 0.53125 0.53125
vt 0.54688 0.53125
vt 0.54688 0.54688
vt 0.57813 0.54688
vt 0.57813 0.53125
vt 0.59375 0.53125
vt 0.59375 0.54688
vt 0.62500 0.54688
vt 0.62500 0.53125
vt 0.64063 0.53125
vt 0.64063 0.54688
vt 0.67188 0.54688
vt 0.67188 0.53125
vt 0.68750 0.53125
vt 0.68750 0.54688
vt 0.71875 0.54688
vt 0.71875 0.53125
vt 0.73438 0.53125
vt 0.73438 0.54688
vt 0.76563 0.54688
vt 0.76563 0.53125
vt 0.78125 0.53125
vt 0.78125 0.54688
vt 0.81250 0.54688
vt 0.81250 0.53125
vt 0.82813 0.53125
vt 0.82813 0.54688
vt 0.85938 0.54688
vt 0.85938 0.53125
vt 0.87500 0.53125
vt 0.87500 0.54688
vt 0.90625 0.54688
vt 0.90625 0.53125
vt 0.92188 0.53125
vt 0.92188 0.54688
vt 0.95313 0.54688
vt 0.95313 0.53125
vt 0.96875 0.53125
vt 0.96875 0.54688
vt 0.01563 0.59375
vt 0.01563 0.57813
vt 0.03125 0.57813
vt 0.03125 0.59375
vt 0.06250 0.59375
vt 0.06250 0.57813
vt 0.07813 0.57813
vt 0.07813 0.59375
vt 0.71875 0.07813
vt 0.84375 0.07813
vt 0.71875 0.01563
vt 0.84375 0.01563
vt 0.21875 0.20313
vt 0.34375 0.20313
vt 0.21875 0.17188
vt 0.34375 0.17188
vt 0.43750 0.34375
vt 0.34375 0.34375
vt 0.03125 0.20313
vt 0.15625 0.20313
vt 0.15625 0.17188
vt 0.03125 0.17188
vt 0.59375 0.29688
vt 0.50000 0.29688
vt 0.78125 0.23438
vt 0.90625 0.23438
vt 0.71875 0.25000
vt 0.59375 0.25000
vt 0.96875 0.43750
vt 0.96875 0.45313
vt 0.96875 0.29688
vt 0.96875 0.31250
vt 0.96875 0.23438
vt 0.96875 0.25000
vt 0.78125 0.43750
vt 0.78125 0.45313
vt 0.46875 0.01563
vt 0.56250 0.01563
vt 0.46875 0.10938
vt 0.56250 0.10938
vt 0.28125 0.40625
vt 0.18750 0.40625
vt 0.50000 0.39063
vt 0.59375 0.39063
vt 0.96875 0.39063
vt 0.96875 0.40625
vt 0.96875 0.34375
vt 0.96875 0.35938
vt 0.84375 0.43750
vt 0.84375 0.45313
vt 0.90625 0.43750
vt 0.90625 0.45313

g Basket
usemtl Basket_Material
f 4/48/2 1/45/2 2/46/2
f 2/46/2 3/47/2 4/48/2
f 3/47/2 2/46/2 25/449/2
f 25/449/2 28/450/2 3/47/2
f 6/70/2 8/72/2 5/69/2
f 6/70/2 7/71/2 8/72/2
f 10/110/2 12/112/2 9/109/2
f 10/110/2 11/111/2 12/112/2
f 14/102/2 16/104/2 13/101/2
f 14/102/2 15/103/2 16/104/2
f 18/94/2 20/96/2 17/93/2
f 18/94/2 19/95/2 20/96/2
f 22/98/2 24/100/2 21/97/2
f 22/98/2 23/99/2 24/100/2
f 26/210/2 28/212/2 25/209/2
f 26/210/2 27/211/2 28/212/2
f 30/214/2 32/216/2 29/213/2
f 30/214/2 31/215/2 32/216/2
f 34/218/2 36/220/2 33/217/2
f 34/218/2 35/219/2 36/220/2
f 37/182/2 18/184/2 23/181/2
f 37/182/2 38/183/2 18/184/2
f 32/274/2 10/276/2 39/273/2
f 32/274/2 40/275/2 10/276/2
f 41/278/2 42/280/2 15/277/2
f 41/278/2 29/279/2 42/280/2
f 44/298/2 46/300/2 43/297/2
f 44/298/2 45/299/2 46/300/2
f 48/318/2 44/320/2 47/317/2
f 48/318/2 49/319/2 44/320/2
f 51/322/2 53/324/2 50/321/2
f 51/322/2 52/323/2 53/324/2
f 55/326/2 56/328/2 54/325/2
f 55/326/2 50/327/2 56/328/2
f 58/314/2 60/316/2 57/313/2
f 58/314/2 59/315/2 60/316/2
f 62/302/2 64/304/2 61/301/2
f 62/302/2 63/303/2 64/304/2
f 68/44/1 65/41/1 66/42/1
f 66/42/1 67/43/1 68/44/1
f 67/43/1 66/42/1 93/451/1
f 93/451/1 96/452/1 67/43/1
f 39/66/1 70/68/1 69/65/1
f 39/66/1 42/67/1 70/68/1
f 43/90/1 73/92/1 71/89/1
f 43/90/1 72/91/1 73/92/1
f 75/86/1 76/88/1 74/85/1
f 75/86/1 56/87/1 76/88/1
f 78/126/1 80/128/1 77/125/1
f 78/126/1 79/127/1 80/128/1
f 82/122/1 84/124/1 81/121/1
f 82/122/1 83/123/1 84/124/1
f 47/174/1 75/176/1 72/173/1
f 47/174/1 53/175/1 75/176/1
f 86/238/1 88/240/1 85/237/1
f 86/238/1 87/239/1 88/240/1
f 90/162/1 92/164/1 89/161/1
f 90/162/1 91/163/1 92/164/1
f 94/150/1 96/152/1 93/149/1
f 94/150/1 95/151/1 96/152/1
f 98/290/1 100/292/1 97/289/1
f 98/290/1 99/291/1 100/292/1
f 102/286/1 104/288/1 101/285/1
f 102/286/1 103/287/1 104/288/1
f 106/406/1 19/408/1 105/405/1
f 106/406/1 107/407/1 19/408/1
f 108/410/1 38/412/1 107/409/1
f 108/410/1 109/411/1 38/412/1
f 110/414/1 112/416/1 37/413/1
f 110/414/1 111/415/1 112/416/1
f 112/402/1 114/404/1 22/401/1
f 112/402/1 113/403/1 114/404/1
f 115/390/1 7/392/1 79/389/1
f 115/390/1 89/391/1 7/392/1
f 92/394/1 82/396/1 6/393/1
f 92/394/1 116/395/1 82/396/1
f 117/453/3 12/53/3 11/54/3
f 11/54/3 118/454/3 117/453/3
f 118/454/3 11/54/3 46/455/3
f 46/455/3 77/56/3 118/454/3
f 77/56/3 46/455/3 105/456/3
f 105/456/3 78/55/3 77/56/3
f 56/62/3 21/64/3 76/61/3
f 56/62/3 22/63/3 21/64/3
f 3/114/3 9/116/3 4/113/3
f 3/114/3 10/115/3 9/116/3
f 42/118/3 74/120/3 70/117/3
f 42/118/3 75/119/3 74/120/3
f 23/130/3 5/132/3 24/129/3
f 23/130/3 6/131/3 5/132/3
f 79/134/3 65/136/3 80/133/3
f 79/134/3 66/135/3 65/136/3
f 45/170/3 105/172/3 46/169/3
f 45/170/3 106/171/3 105/172/3
f 107/180/3 44/177/3 49/178/3
f 49/178/3 108/179/3 107/180/3
f 108/179/3 49/178/3 122/458/3
f 122/458/3 121/457/3 108/179/3
f 53/166/3 23/168/3 75/165/3
f 53/166/3 37/167/3 23/168/3
f 59/222/3 97/224/3 60/221/3
f 59/222/3 98/223/3 97/224/3
f 27/438/3 39/440/3 28/437/3
f 27/438/3 32/439/3 39/440/3
f 40/442/3 43/444/3 10/441/3
f 40/442/3 44/443/3 43/444/3
f 31/446/3 47/448/3 32/445/3
f 31/446/3 48/447/3 47/448/3
f 35/434/3 57/436/3 36/433/3
f 35/434/3 58/435/3 57/436/3
f 99/422/3 85/424/3 100/421/3
f 99/422/3 86/423/3 85/424/3
f 107/426/3 79/428/3 19/425/3
f 107/426/3 115/427/3 79/428/3
f 109/430/3 89/432/3 38/429/3
f 109/430/3 90/431/3 89/432/3
f 89/346/3 93/348/3 7/345/3
f 89/346/3 94/347/3 93/348/3
f 119/459/4 84/49/4 83/50/4
f 83/50/4 120/460/4 119/459/4
f 120/460/4 83/50/4 114/462/4
f 114/462/4 13/52/4 120/460/4
f 13/52/4 114/462/4 54/461/4
f 54/461/4 14/51/4 13/52/4
f 19/58/4 71/60/4 20/57/4
f 19/58/4 43/59/4 71/60/4
f 15/82/4 1/84/4 16/81/4
f 15/82/4 2/83/4 1/84/4
f 72/74/4 69/76/4 73/73/4
f 72/74/4 39/75/4 69/76/4
f 7/78/4 17/80/4 8/77/4
f 7/78/4 18/79/4 17/80/4
f 67/106/4 81/108/4 68/105/4
f 67/106/4 82/107/4 81/108/4
f 38/146/4 72/148/4 18/145/4
f 38/146/4 47/147/4 72/148/4
f 50/160/4 112/157/4 111/158/4
f 111/158/4 51/159/4 50/160/4
f 51/159/4 111/158/4 124/464/4
f 124/464/4 123/463/4 51/159/4
f 113/154/4 54/156/4 114/153/4
f 113/154/4 55/155/4 54/156/4
f 103/226/4 61/228/4 104/225/4
f 103/226/4 62/227/4 61/228/4
f 29/342/4 25/344/4 42/341/4
f 29/342/4 26/343/4 25/344/4
f 52/330/4 29/332/4 53/329/4
f 52/330/4 30/331/4 29/332/4
f 50/334/4 15/336/4 56/333/4
f 50/334/4 41/335/4 15/336/4
f 63/338/4 33/340/4 64/337/4
f 63/338/4 34/339/4 33/340/4
f 87/358/4 101/360/4 88/357/4
f 87/358/4 102/359/4 101/360/4
f 91/378/4 37/380/4 92/377/4
f 91/378/4 110/379/4 37/380/4
f 116/382/4 22/384/4 82/381/4
f 116/382/4 112/383/4 22/384/4
f 95/386/4 6/388/4 96/385/4
f 95/386/4 92/387/4 6/388/4
f 47/1/5 38/2/5 53/4/5
f 38/2/5 37/3/5 53/4/5
f 117/9/5 118/10/5 71/12/5
f 118/10/5 20/11/5 71/12/5
f 43/5/5 19/6/5 72/8/5
f 19/6/5 18/7/5 72/8/5
f 75/13/5 23/14/5 56/16/5
f 23/14/5 22/15/5 56/16/5
f 76/25/5 21/26/5 120/28/5
f 21/26/5 119/27/5 120/28/5
f 1/144/5 4/141/5 9/142/5
f 9/142/5 69/465/5 1/144/5
f 16/143/5 1/144/5 69/465/5
f 69/465/5 70/466/5 16/143/5
f 8/468/5 80/137/5 65/138/5
f 65/138/5 68/139/5 8/468/5
f 5/467/5 8/468/5 68/139/5
f 68/139/5 81/140/5 5/467/5
f 39/193/5 72/194/5 42/196/5
f 72/194/5 75/195/5 42/196/5
f 18/189/5 7/190/5 23/192/5
f 7/190/5 6/191/5 23/192/5
f 9/470/5 12/269/5 117/270/5
f 117/270/5 71/469/5 9/470/5
f 69/272/5 9/470/5 71/469/5
f 71/469/5 73/271/5 69/272/5
f 16/472/5 70/245/5 74/246/5
f 74/246/5 76/471/5 16/472/5
f 13/248/5 16/472/5 76/471/5
f 76/471/5 120/247/5 13/248/5
f 20/474/5 118/241/5 77/242/5
f 77/242/5 80/473/5 20/474/5
f 17/244/5 20/474/5 80/473/5
f 80/473/5 8/243/5 17/244/5
f 21/476/5 24/257/5 5/258/5
f 5/258/5 81/475/5 21/476/5
f 119/260/5 21/476/5 81/475/5
f 81/475/5 84/259/5 119/260/5
f 99/479/6 98/29/6 59/30/6
f 59/30/6 58/477/6 99/479/6
f 102/480/6 99/479/6 58/477/6
f 58/477/6 63/478/6 102/480/6
f 103/32/6 102/480/6 63/478/6
f 63/478/6 62/31/6 103/32/6
f 106/21/6 45/22/6 107/24/6
f 45/22/6 44/23/6 107/24/6
f 112/17/6 50/18/6 113/20/6
f 50/18/6 55/19/6 113/20/6
f 121/33/6 122/34/6 97/36/6
f 122/34/6 60/35/6 97/36/6
f 104/37/6 61/38/6 124/40/6
f 61/38/6 123/39/6 124/40/6
f 32/201/6 27/202/6 29/204/6
f 27/202/6 26/203/6 29/204/6
f 36/482/6 48/197/6 31/198/6
f 31/198/6 30/199/6 36/482/6
f 33/481/6 36/482/6 30/199/6
f 30/199/6 52/200/6 33/481/6
f 58/233/6 35/234/6 63/236/6
f 35/234/6 34/235/6 63/236/6
f 86/229/6 99/230/6 87/232/6
f 99/230/6 102/231/6 87/232/6
f 91/208/6 90/205/6 109/206/6
f 109/206/6 85/483/6 91/208/6
f 110/207/6 91/208/6 85/483/6
f 85/483/6 88/484/6 110/207/6
f 94/185/6 89/186/6 95/188/6
f 89/186/6 92/187/6 95/188/6
f 60/486/6 122/253/6 49/254/6
f 49/254/6 48/485/6 60/486/6
f 57/256/6 60/486/6 48/485/6
f 48/485/6 36/255/6 57/256/6
f 61/488/6 64/249/6 33/250/6
f 33/250/6 52/487/6 61/488/6
f 123/252/6 61/488/6 52/487/6
f 52/487/6 51/251/6 123/252/6
f 109/490/6 108/261/6 121/262/6
f 121/262/6 97/489/6 109/490/6
f 85/264/6 109/490/6 97/489/6
f 97/489/6 100/263/6 85/264/6
f 110/492/6 88/265/6 101/266/6
f 101/266/6 104/491/6 110/492/6
f 111/268/6 110/492/6 104/491/6
f 104/491/6 124/267/6 111/268/6
f 10/369/6 3/370/6 39/372/6
f 3/370/6 28/371/6 39/372/6
f 42/365/6 25/366/6 15/368/6
f 25/366/6 2/367/6 15/368/6
f 46/361/6 11/362/6 43/364/6
f 11/362/6 10/363/6 43/364/6
f 44/373/6 40/374/6 47/376/6
f 40/374/6 32/375/6 47/376/6
f 53/353/6 29/354/6 50/356/6
f 29/354/6 41/355/6 50/356/6
f 56/349/6 15/350/6 54/352/6
f 15/350/6 14/351/6 54/352/6
f 78/417/6 105/418/6 79/420/6
f 105/418/6 19/419/6 79/420/6
f 115/397/6 107/398/6 89/400/6
f 107/398/6 38/399/6 89/400/6
f 92/309/6 37/310/6 116/312/6
f 37/310/6 112/311/6 116/312/6
f 82/305/6 22/306/6 83/308/6
f 22/306/6 114/307/6 83/308/6
f 66/293/6 79/294/6 93/296/6
f 79/294/6 7/295/6 93/296/6
f 96/281/6 6/282/6 67/284/6
f 6/282/6 82/283/6 67/284/6
